<mxfile host="app.diagrams.net" modified="2021-03-26T14:15:08.461Z" agent="5.0 (Windows)" etag="cGZwh05jtyMSFknv6IyR" version="14.5.1" type="github">
  <diagram id="_HG9UhCbACeFY6xR2h-d" name="Page-1">
    <mxGraphModel dx="2249" dy="735" grid="1" gridSize="10" guides="1" tooltips="1" connect="1" arrows="1" fold="1" page="1" pageScale="1" pageWidth="827" pageHeight="1169" math="0" shadow="0">
      <root>
        <mxCell id="0" />
        <mxCell id="1" parent="0" />
        <mxCell id="1OpiZn_RMB7CZ_3JZA8x-75" value="&lt;p style=&quot;margin: 0px ; margin-top: 4px ; margin-left: 7px ; text-align: left&quot;&gt;&lt;b&gt;Chaîne d&#39;information&lt;/b&gt;&lt;/p&gt;" style="html=1;shape=mxgraph.sysml.package;overflow=fill;labelX=138;strokeWidth=2;align=center;fillColor=none;" parent="1" vertex="1">
          <mxGeometry x="-50" y="90" width="830" height="690" as="geometry" />
        </mxCell>
        <mxCell id="1OpiZn_RMB7CZ_3JZA8x-52" value="²" style="shape=rect;rounded=1;html=1;whiteSpace=wrap;align=center;dashed=1;strokeWidth=2;strokeColor=#82b366;fillColor=none;" parent="1" vertex="1">
          <mxGeometry x="150" y="180" width="450" height="200" as="geometry" />
        </mxCell>
        <mxCell id="1OpiZn_RMB7CZ_3JZA8x-45" style="edgeStyle=orthogonalEdgeStyle;rounded=0;orthogonalLoop=1;jettySize=auto;html=1;" parent="1" source="1OpiZn_RMB7CZ_3JZA8x-43" target="1OpiZn_RMB7CZ_3JZA8x-44" edge="1">
          <mxGeometry relative="1" as="geometry" />
        </mxCell>
        <mxCell id="1OpiZn_RMB7CZ_3JZA8x-43" value="Énergie Électrique" style="shape=ellipse;html=1;strokeWidth=3;fontStyle=1;whiteSpace=wrap;align=center;perimeter=ellipsePerimeter;fillColor=#dae8fc;strokeColor=#6c8ebf;" parent="1" vertex="1">
          <mxGeometry x="20" y="210" width="120" height="60" as="geometry" />
        </mxCell>
        <mxCell id="1OpiZn_RMB7CZ_3JZA8x-46" style="edgeStyle=orthogonalEdgeStyle;rounded=0;orthogonalLoop=1;jettySize=auto;html=1;exitX=1;exitY=0.5;exitDx=0;exitDy=0;" parent="1" source="1OpiZn_RMB7CZ_3JZA8x-44" edge="1">
          <mxGeometry relative="1" as="geometry">
            <mxPoint x="440" y="240" as="targetPoint" />
          </mxGeometry>
        </mxCell>
        <mxCell id="1OpiZn_RMB7CZ_3JZA8x-44" value="Stocker/Alimenter&lt;br&gt;&lt;br&gt;Batterie&amp;nbsp;" style="shape=rect;html=1;verticalAlign=top;fontStyle=1;whiteSpace=wrap;align=center;" parent="1" vertex="1">
          <mxGeometry x="230" y="210" width="120" height="60" as="geometry" />
        </mxCell>
        <mxCell id="1OpiZn_RMB7CZ_3JZA8x-48" style="edgeStyle=orthogonalEdgeStyle;rounded=0;orthogonalLoop=1;jettySize=auto;html=1;entryX=0;entryY=0.5;entryDx=0;entryDy=0;" parent="1" source="1OpiZn_RMB7CZ_3JZA8x-47" target="1OpiZn_RMB7CZ_3JZA8x-49" edge="1">
          <mxGeometry relative="1" as="geometry">
            <mxPoint x="680" y="240" as="targetPoint" />
          </mxGeometry>
        </mxCell>
        <mxCell id="1OpiZn_RMB7CZ_3JZA8x-47" value="Distribuer&lt;br&gt;&lt;br&gt;Électrovanne" style="shape=rect;html=1;verticalAlign=top;fontStyle=1;whiteSpace=wrap;align=center;" parent="1" vertex="1">
          <mxGeometry x="440" y="210" width="120" height="60" as="geometry" />
        </mxCell>
        <mxCell id="1OpiZn_RMB7CZ_3JZA8x-49" value="Faire couler de l&#39;eau" style="shape=rect;html=1;verticalAlign=top;fontStyle=1;whiteSpace=wrap;align=center;dashed=1;fillColor=#dae8fc;strokeColor=#6c8ebf;" parent="1" vertex="1">
          <mxGeometry x="640" y="210" width="120" height="60" as="geometry" />
        </mxCell>
        <mxCell id="1OpiZn_RMB7CZ_3JZA8x-53" value="Distribuer&lt;br&gt;&lt;br&gt;Shield IDUINO" style="shape=rect;html=1;verticalAlign=top;fontStyle=1;whiteSpace=wrap;align=center;" parent="1" vertex="1">
          <mxGeometry x="440" y="310" width="120" height="60" as="geometry" />
        </mxCell>
        <mxCell id="1OpiZn_RMB7CZ_3JZA8x-54" style="edgeStyle=orthogonalEdgeStyle;rounded=0;orthogonalLoop=1;jettySize=auto;html=1;exitX=1;exitY=0.5;exitDx=0;exitDy=0;entryX=0;entryY=0.5;entryDx=0;entryDy=0;" parent="1" source="1OpiZn_RMB7CZ_3JZA8x-44" target="1OpiZn_RMB7CZ_3JZA8x-53" edge="1">
          <mxGeometry relative="1" as="geometry">
            <mxPoint x="450" y="250" as="targetPoint" />
            <mxPoint x="360" y="250" as="sourcePoint" />
            <Array as="points">
              <mxPoint x="405" y="240" />
              <mxPoint x="405" y="340" />
            </Array>
          </mxGeometry>
        </mxCell>
        <mxCell id="1OpiZn_RMB7CZ_3JZA8x-55" value="" style="shape=rect;rounded=1;html=1;whiteSpace=wrap;align=center;dashed=1;strokeWidth=2;strokeColor=#b85450;fillColor=none;" parent="1" vertex="1">
          <mxGeometry x="150" y="400" width="450" height="340" as="geometry" />
        </mxCell>
        <mxCell id="1OpiZn_RMB7CZ_3JZA8x-62" style="edgeStyle=orthogonalEdgeStyle;rounded=0;orthogonalLoop=1;jettySize=auto;html=1;exitX=1;exitY=0.5;exitDx=0;exitDy=0;entryX=0;entryY=0.5;entryDx=0;entryDy=0;" parent="1" source="1OpiZn_RMB7CZ_3JZA8x-56" target="1OpiZn_RMB7CZ_3JZA8x-61" edge="1">
          <mxGeometry relative="1" as="geometry">
            <Array as="points">
              <mxPoint x="290" y="460" />
              <mxPoint x="290" y="560" />
            </Array>
          </mxGeometry>
        </mxCell>
        <mxCell id="1OpiZn_RMB7CZ_3JZA8x-56" value="acquérir&lt;br&gt;&lt;br&gt;capt temp/hum air" style="shape=rect;html=1;verticalAlign=top;fontStyle=1;whiteSpace=wrap;align=center;" parent="1" vertex="1">
          <mxGeometry x="160" y="430" width="120" height="60" as="geometry" />
        </mxCell>
        <mxCell id="1OpiZn_RMB7CZ_3JZA8x-63" style="edgeStyle=orthogonalEdgeStyle;rounded=0;orthogonalLoop=1;jettySize=auto;html=1;exitX=1;exitY=0.5;exitDx=0;exitDy=0;" parent="1" source="1OpiZn_RMB7CZ_3JZA8x-57" edge="1">
          <mxGeometry relative="1" as="geometry">
            <mxPoint x="310" y="560" as="targetPoint" />
            <Array as="points">
              <mxPoint x="290" y="530" />
              <mxPoint x="290" y="560" />
            </Array>
          </mxGeometry>
        </mxCell>
        <mxCell id="1OpiZn_RMB7CZ_3JZA8x-57" value="acquérir&lt;br&gt;&lt;br&gt;humidité sol" style="shape=rect;html=1;verticalAlign=top;fontStyle=1;whiteSpace=wrap;align=center;" parent="1" vertex="1">
          <mxGeometry x="160" y="500" width="120" height="60" as="geometry" />
        </mxCell>
        <mxCell id="1OpiZn_RMB7CZ_3JZA8x-64" style="edgeStyle=orthogonalEdgeStyle;rounded=0;orthogonalLoop=1;jettySize=auto;html=1;exitX=1;exitY=0.5;exitDx=0;exitDy=0;" parent="1" source="1OpiZn_RMB7CZ_3JZA8x-58" target="1OpiZn_RMB7CZ_3JZA8x-61" edge="1">
          <mxGeometry relative="1" as="geometry">
            <Array as="points">
              <mxPoint x="290" y="600" />
              <mxPoint x="290" y="560" />
            </Array>
          </mxGeometry>
        </mxCell>
        <mxCell id="1OpiZn_RMB7CZ_3JZA8x-58" value="acquérir&lt;br&gt;pression entrée valve" style="shape=rect;html=1;verticalAlign=top;fontStyle=1;whiteSpace=wrap;align=center;" parent="1" vertex="1">
          <mxGeometry x="160" y="570" width="120" height="60" as="geometry" />
        </mxCell>
        <mxCell id="1OpiZn_RMB7CZ_3JZA8x-65" style="edgeStyle=orthogonalEdgeStyle;rounded=0;orthogonalLoop=1;jettySize=auto;html=1;exitX=1;exitY=0.5;exitDx=0;exitDy=0;entryX=0;entryY=0.5;entryDx=0;entryDy=0;" parent="1" source="1OpiZn_RMB7CZ_3JZA8x-60" target="1OpiZn_RMB7CZ_3JZA8x-61" edge="1">
          <mxGeometry relative="1" as="geometry">
            <Array as="points">
              <mxPoint x="290" y="670" />
              <mxPoint x="290" y="560" />
            </Array>
          </mxGeometry>
        </mxCell>
        <mxCell id="1OpiZn_RMB7CZ_3JZA8x-60" value="acquérir&lt;br&gt;pression sortie valve" style="shape=rect;html=1;verticalAlign=top;fontStyle=1;whiteSpace=wrap;align=center;" parent="1" vertex="1">
          <mxGeometry x="160" y="640" width="120" height="60" as="geometry" />
        </mxCell>
        <mxCell id="1OpiZn_RMB7CZ_3JZA8x-69" style="edgeStyle=orthogonalEdgeStyle;rounded=0;orthogonalLoop=1;jettySize=auto;html=1;exitX=1;exitY=0.5;exitDx=0;exitDy=0;entryX=0;entryY=0.5;entryDx=0;entryDy=0;strokeWidth=1;" parent="1" source="1OpiZn_RMB7CZ_3JZA8x-61" target="1OpiZn_RMB7CZ_3JZA8x-66" edge="1">
          <mxGeometry relative="1" as="geometry" />
        </mxCell>
        <mxCell id="1OpiZn_RMB7CZ_3JZA8x-61" value="Traiter&lt;br&gt;&lt;br&gt;Carte arduino" style="shape=rect;html=1;verticalAlign=top;fontStyle=1;whiteSpace=wrap;align=center;" parent="1" vertex="1">
          <mxGeometry x="310" y="530" width="120" height="60" as="geometry" />
        </mxCell>
        <mxCell id="1OpiZn_RMB7CZ_3JZA8x-67" style="edgeStyle=orthogonalEdgeStyle;rounded=0;orthogonalLoop=1;jettySize=auto;html=1;exitX=1;exitY=0;exitDx=0;exitDy=0;strokeWidth=2;" parent="1" source="1OpiZn_RMB7CZ_3JZA8x-66" target="1OpiZn_RMB7CZ_3JZA8x-47" edge="1">
          <mxGeometry relative="1" as="geometry">
            <Array as="points">
              <mxPoint x="570" y="300" />
              <mxPoint x="500" y="300" />
            </Array>
          </mxGeometry>
        </mxCell>
        <mxCell id="1OpiZn_RMB7CZ_3JZA8x-66" value="Communiquer&lt;br&gt;&lt;br&gt;Application" style="shape=rect;html=1;verticalAlign=top;fontStyle=1;whiteSpace=wrap;align=center;" parent="1" vertex="1">
          <mxGeometry x="450" y="530" width="120" height="60" as="geometry" />
        </mxCell>
        <mxCell id="1OpiZn_RMB7CZ_3JZA8x-68" value="Ouvrir/fermer" style="text;html=1;align=center;verticalAlign=middle;resizable=0;points=[];autosize=1;" parent="1" vertex="1">
          <mxGeometry x="570" y="380" width="90" height="20" as="geometry" />
        </mxCell>
      </root>
    </mxGraphModel>
  </diagram>
</mxfile>
